<svg xmlns="http://www.w3.org/2000/svg" width="1440" height="800" viewBox="0 0 1440 800">
  <defs>
    <linearGradient id="grad1" x1="0%" y1="0%" x2="100%" y2="100%">
      <stop offset="0%" style="stop-color:#FF6B35;stop-opacity:1" />
      <stop offset="100%" style="stop-color:#004E89;stop-opacity:1" />
    </linearGradient>
    <linearGradient id="grad2" x1="0%" y1="0%" x2="100%" y2="0%">
      <stop offset="0%" style="stop-color:#FFC14D;stop-opacity:0.8" />
      <stop offset="100%" style="stop-color:#FFC14D;stop-opacity:0" />
    </linearGradient>
  </defs>
  <rect width="1440" height="800" fill="url(#grad1)" />
  
  <!-- Colombian flag-inspired elements -->
  <path d="M0,0 L1440,0 L1440,266 L0,266 Z" fill="#FFC14D" opacity="0.3" />
  <path d="M0,266 L1440,266 L1440,532 L0,532 Z" fill="#003893" opacity="0.2" />
  <path d="M0,532 L1440,532 L1440,800 L0,800 Z" fill="#CE1126" opacity="0.2" />
  
  <!-- Abstract shapes -->
  <circle cx="200" cy="150" r="100" fill="#FFC14D" opacity="0.3" />
  <circle cx="1200" cy="650" r="180" fill="#FF6B35" opacity="0.2" />
  <circle cx="400" cy="700" r="120" fill="#004E89" opacity="0.3" />
  <path d="M1100,100 C1200,150 1300,50 1400,100 L1440,0 L1100,0 Z" fill="url(#grad2)" />
  <path d="M0,600 C100,550 200,650 300,600 L0,800 L0,600 Z" fill="#FF6B35" opacity="0.2" />
  
  <!-- Wave patterns -->
  <path d="M0,400 C200,450 400,350 600,400 C800,450 1000,350 1200,400 C1300,425 1400,400 1440,400 L1440,500 L0,500 Z" fill="#FFC14D" opacity="0.2" />
</svg>