<svg xmlns="http://www.w3.org/2000/svg" width="400" height="400" viewBox="0 0 400 400">
  <style>
    @keyframes float {
      0%, 100% { transform: translateY(0); }
      50% { transform: translateY(-10px); }
    }
    @keyframes fadein {
      0% { opacity: 0; }
      100% { opacity: 1; }
    }
    @keyframes checkmark {
      0% { stroke-dashoffset: 86; }
      100% { stroke-dashoffset: 0; }
    }
    @keyframes scale {
      0% { transform: scale(0); }
      60% { transform: scale(1.1); }
      100% { transform: scale(1); }
    }
    @keyframes rotate {
      0% { transform: rotate(0deg); }
      100% { transform: rotate(360deg); }
    }
    @keyframes pulse {
      0%, 100% { transform: scale(1); }
      50% { transform: scale(1.05); }
    }
    .receipt { animation: float 4s ease-in-out infinite; }
    .person { animation: fadein 0.8s ease-in-out forwards; opacity: 0; animation-delay: 0.5s; }
    .check { stroke-dasharray: 86; stroke-dashoffset: 86; animation: checkmark 1s ease-in-out forwards; animation-delay: 1.8s; }
    .check-circle { transform-origin: center; animation: scale 0.5s ease-out forwards; animation-delay: 1.5s; transform: scale(0); }
    .coin { animation: rotate 15s linear infinite; }
    .card { animation: pulse 2s ease-in-out infinite; }
  </style>

  <!-- Background removed -->
  
  <!-- Phone -->
  <rect x="125" y="60" width="150" height="280" rx="20" fill="#4a5568" />
  <rect x="130" y="70" width="140" height="260" rx="15" fill="#ffffff" />
  
  <!-- Screen Content -->
  <rect x="140" y="90" width="120" height="20" rx="4" fill="#FF6B35" />
  <rect x="140" y="120" width="80" height="10" rx="2" fill="#e2e8f0" />
  <rect x="140" y="140" width="100" height="10" rx="2" fill="#e2e8f0" />
  <rect x="140" y="160" width="90" height="10" rx="2" fill="#e2e8f0" />
  <rect x="140" y="180" width="120" height="40" rx="6" fill="#FF6B35" />
  
  <!-- Credit Card -->
  <g class="card">
    <rect x="150" y="230" width="100" height="60" rx="8" fill="#3182ce" />
    <rect x="160" y="240" width="40" height="5" rx="2" fill="#ffffff" opacity="0.8" />
    <rect x="160" y="270" width="60" height="5" rx="2" fill="#ffffff" opacity="0.8" />
  </g>
  
  <!-- Receipt -->
  <g class="receipt">
    <rect x="280" y="120" width="70" height="100" rx="4" fill="#ffffff" stroke="#e2e8f0" stroke-width="2" />
    <line x1="290" y1="140" x2="340" y2="140" stroke="#e2e8f0" stroke-width="2" />
    <line x1="290" y1="160" x2="340" y2="160" stroke="#e2e8f0" stroke-width="2" />
    <line x1="290" y1="180" x2="340" y2="180" stroke="#e2e8f0" stroke-width="2" />
    <line x1="290" y1="200" x2="330" y2="200" stroke="#FF6B35" stroke-width="2" />
  </g>
  
  <!-- Coins -->
  <g class="coin" transform="translate(80, 200)">
    <circle cx="0" cy="0" r="20" fill="#FFD700" />
    <circle cx="0" cy="0" r="15" fill="#FFC700" />
    <path d="M-5,-10 L5,-10 L5,10 L-5,10 Z" fill="#FFD700" />
  </g>
  
  <!-- Happy Person -->
  <g class="person" transform="translate(320, 280)">
    <circle cx="0" cy="0" r="40" fill="#FF6B35" />
    <circle cx="-15" cy="-10" r="5" fill="#ffffff" />
    <circle cx="15" cy="-10" r="5" fill="#ffffff" />
    <path d="M-20,15 Q0,35 20,15" stroke="#ffffff" stroke-width="4" fill="transparent" stroke-linecap="round" />
  </g>
  
  <!-- Success Checkmark -->
  <g transform="translate(200, 280)">
    <circle class="check-circle" cx="0" cy="0" r="30" fill="#48BB78" />
    <path class="check" d="M-15,0 L-5,10 L15,-10" stroke="#ffffff" stroke-width="6" fill="transparent" stroke-linecap="round" stroke-linejoin="round" />
  </g>
</svg>