<svg width="162" height="42" viewBox="0 0 162 42" fill="none" xmlns="http://www.w3.org/2000/svg">
  <path d="M23.7424 8.51193C22.0455 8.51193 20.6273 9.23551 19.5879 10.6827C18.5485 12.1298 18.0288 14.1229 18.0288 16.662C18.0288 19.1527 18.5485 21.1301 19.5879 22.5942C20.6273 24.0583 22.0455 24.7904 23.7424 24.7904C25.4394 24.7904 26.8576 24.0583 27.897 22.5942C28.9364 21.1301 29.4561 19.1527 29.4561 16.662C29.4561 14.1229 28.9364 12.1298 27.897 10.6827C26.8576 9.23551 25.4394 8.51193 23.7424 8.51193Z" fill="white"/>
  <path d="M23.7424 32.7102C20.0167 32.7102 17.0455 31.471 14.8288 29.0011C12.6121 26.5312 11.5037 22.9999 11.5037 18.4072C11.5037 13.746 12.6121 10.1984 14.8288 7.78606C17.0455 5.37375 20.0167 4.1683 23.7424 4.1683C27.4682 4.1683 30.4394 5.37375 32.6561 7.78606C34.8727 10.1984 35.9818 13.746 35.9818 18.4072C35.9818 22.9999 34.8727 26.5312 32.6561 29.0011C30.4394 31.471 27.4682 32.7102 23.7424 32.7102Z" fill="white"/>
  <path d="M52.4045 12.8019H46.1485V31.1784H39.9167V12.8019H33.6606V7.45459H52.4045V12.8019Z" fill="white"/>
  <path d="M56.1803 31.1784V7.45459H70.9924V12.5407H62.4121V16.2488H70.1333V21.3349H62.4121V26.0922H71.0773V31.1784H56.1803Z" fill="white"/>
  <path d="M82.8955 31.1784H76.6637V7.45459H82.8955V31.1784Z" fill="white"/>
  <path d="M94.2107 31.5743C91.4561 31.5743 89.2212 30.7889 87.5061 29.2181C85.7909 27.6473 84.9333 25.5051 84.9333 22.7914C84.9333 20.2007 85.7212 18.1229 87.297 16.5579C88.8727 14.993 90.9606 14.2105 93.5606 14.2105C96.0318 14.2105 97.9803 14.9224 99.4061 16.3462C100.832 17.7699 101.545 19.6473 101.545 21.9782V24.3159H90.9121C91.003 25.1702 91.3364 25.8232 91.9121 26.2748C92.4879 26.7265 93.2258 26.9523 94.1258 26.9523C94.8182 26.9523 95.4258 26.8462 95.9485 26.6338C96.4712 26.4215 97.0591 26.047 97.7121 25.5105L100.591 29.026C98.3258 30.7252 96.1773 31.5743 94.2107 31.5743ZM95.9485 20.0389C95.9485 19.3418 95.7364 18.8021 95.3121 18.4196C94.8879 18.0371 94.303 17.8459 93.5576 17.8459C92.8121 17.8459 92.2136 18.0429 91.7621 18.437C91.3106 18.831 91.0348 19.3764 90.9348 20.0735H95.9485V20.0389Z" fill="white"/>
  <path d="M113.811 20.6919L119.364 14.6071H126.039L118.997 21.9783L126.297 31.1784H119.237L114.939 25.6411L113.811 26.8457V31.1784H107.579V7.45459H113.811V20.6919Z" fill="white"/>
  <path d="M128.316 31.1784V7.45459H143.128V12.5407H134.548V16.2488H142.269V21.3349H134.548V26.0922H143.213V31.1784H128.316Z" fill="white"/>
  <path d="M155.068 31.5743C152.313 31.5743 150.078 30.7889 148.363 29.2181C146.648 27.6473 145.79 25.5051 145.79 22.7914C145.79 20.2007 146.578 18.1229 148.154 16.5579C149.73 14.993 151.818 14.2105 154.418 14.2105C156.889 14.2105 158.837 14.9224 160.263 16.3462C161.689 17.7699 162.402 19.6473 162.402 21.9782V24.3159H151.769C151.86 25.1702 152.193 25.8232 152.769 26.2748C153.345 26.7265 154.083 26.9523 154.983 26.9523C155.675 26.9523 156.283 26.8462 156.805 26.6338C157.328 26.4215 157.916 26.047 158.569 25.5105L161.448 29.026C159.183 30.7252 157.034 31.5743 155.068 31.5743ZM156.805 20.0389C156.805 19.3418 156.593 18.8021 156.169 18.4196C155.745 18.0371 155.16 17.8459 154.414 17.8459C153.669 17.8459 153.07 18.0429 152.619 18.437C152.167 18.831 151.892 19.3764 151.792 20.0735H156.805V20.0389Z" fill="white"/>
  <path d="M6.46977 34.1919C5.27879 34.1919 4.01818 34.051 2.68788 33.7691C1.35757 33.4871 0.342427 33.194 -0.357666 32.8898V26.4391C0.524243 26.9201 1.52425 27.3086 2.64231 27.6047C3.76038 27.9008 4.77273 28.0488 5.67879 28.0488C6.60606 28.0488 7.32425 27.9451 7.83334 27.7377C8.34243 27.5303 8.59698 27.1896 8.59698 26.7157C8.59698 26.3081 8.29697 26.0082 7.69697 25.8159C7.09697 25.6236 6.31819 25.5274 5.36061 25.5274H3.10605V19.8366H5.36061C6.1394 19.8366 6.76971 19.7346 7.25153 19.5305C7.73335 19.3265 7.97426 19.0329 7.97426 18.6498C7.97426 18.2107 7.70304 17.886 7.16062 17.6757C6.61819 17.4653 5.95153 17.3601 5.16061 17.3601C4.30304 17.3601 3.36364 17.4801 2.34242 17.72C1.32121 17.9599 0.415151 18.2899 -0.375 18.7099V12.6191C0.197727 12.3095 1.16667 12.0195 2.53031 11.7492C3.89395 11.479 5.21212 11.3439 6.48488 11.3439C9.50002 11.3439 11.8636 11.9552 13.5758 13.1779C15.2879 14.4006 16.144 16.0371 16.144 18.0873C16.144 18.9978 15.947 19.8074 15.553 20.5163C15.1591 21.2251 14.6121 21.8102 13.9121 22.2714C14.8182 22.717 15.5439 23.34 16.0894 24.1402C16.6349 24.9405 16.9076 25.8423 16.9076 26.8458C16.9076 28.9757 16.0212 30.627 14.2485 31.7996C12.4758 32.9723 9.87881 34.1919 6.46977 34.1919Z" fill="white"/>
</svg>