<svg width="200" height="60" viewBox="0 0 200 60" fill="none" xmlns="http://www.w3.org/2000/svg">
  <path d="M25 10C16.7157 10 10 16.7157 10 25C10 33.2843 16.7157 40 25 40C33.2843 40 40 33.2843 40 25C40 16.7157 33.2843 10 25 10Z" fill="#FF6B35"/>
  <path d="M27.5 17.5L22.5 32.5" stroke="white" stroke-width="3" stroke-linecap="round"/>
  <path d="M20 20L25 25L30 20" stroke="white" stroke-width="2" stroke-linecap="round" stroke-linejoin="round"/>
  <path d="M20 30L25 25L30 30" stroke="white" stroke-width="2" stroke-linecap="round" stroke-linejoin="round"/>
  <path d="M50.1406 29.3438C50.1406 27.5781 50.6094 26.1719 51.5469 25.125C52.4844 24.0625 53.7344 23.5312 55.2969 23.5312C56.7656 23.5312 57.9375 24.0156 58.8125 24.9844L58.9219 23.7812H62.2031V41.5312C62.2031 43.125 61.6719 44.3906 60.6094 45.3281C59.5625 46.2812 58.1562 46.7578 56.3906 46.7578C55.4531 46.7578 54.5391 46.5859 53.6484 46.2422C52.7578 45.9141 52.0781 45.4922 51.6094 44.9766L53.1719 42.6484C54.0469 43.5078 55.0781 43.9375 56.2656 43.9375C57.1094 43.9375 57.7734 43.7031 58.2578 43.2344C58.7422 42.7812 58.9844 42.1172 58.9844 41.2422V40.5156C58.125 41.3906 57.0156 41.8281 55.6406 41.8281C54.1094 41.8281 52.8672 41.2891 51.9141 40.2109C50.9766 39.1172 50.5078 37.6016 50.5078 35.6641V29.3438H50.1406ZM58.9688 35.5781V30.5312C58.4375 29.625 57.6875 29.1719 56.7188 29.1719C56.0312 29.1719 55.5078 29.4141 55.1484 29.8984C54.7891 30.3672 54.6094 31.125 54.6094 32.1719V35.75C54.6094 36.7812 54.7891 37.5391 55.1484 38.0234C55.5078 38.4922 56.0469 38.7266 56.7656 38.7266C57.7344 38.7266 58.4688 38.3438 58.9688 37.5781V35.5781Z" fill="#2D3748"/>
  <path d="M70.1719 34.7734L67.6562 37.2422V41.5H63.6328V19.5H67.6562V32.3125L73.5156 23.7812H78.2188L72.8125 32.0156L78.7344 41.5H73.9375L70.1719 34.7734Z" fill="#2D3748"/>
  <path d="M89.8125 41.5C89.625 41.1406 89.4844 40.7109 89.3906 40.2109C88.5156 41.2891 87.3281 41.8281 85.8281 41.8281C84.4219 41.8281 83.2422 41.4062 82.2891 40.5625C81.3516 39.7188 80.8828 38.6641 80.8828 37.3984C80.8828 35.8516 81.4609 34.6641 82.6172 33.8359C83.7891 33.0078 85.4766 32.5859 87.6797 32.5703H89.1016V31.9062C89.1016 31.3594 88.9609 30.9219 88.6797 30.5938C88.4141 30.2656 87.9766 30.1016 87.3672 30.1016C86.8203 30.1016 86.3984 30.2266 86.1016 30.4766C85.8203 30.7266 85.6797 31.0859 85.6797 31.5547H81.6562C81.6562 30.6641 81.9062 29.8594 82.4062 29.1406C82.9062 28.4062 83.625 27.8359 84.5625 27.4297C85.5 27.0234 86.5703 26.8203 87.7734 26.8203C89.6328 26.8203 91.0859 27.2734 92.1328 28.1797C93.1953 29.0703 93.7266 30.3359 93.7266 31.9766V38.1797C93.7422 39.5547 93.9453 40.5781 94.3359 41.25V41.5H89.8125ZM86.9766 38.4375C87.4609 38.4375 87.8984 38.3281 88.2891 38.1094C88.6797 37.875 88.9609 37.5781 89.1328 37.2188V35.0625H87.9844C86.3438 35.0625 85.4922 35.6953 85.4297 36.9609L85.4219 37.1406C85.4219 37.5469 85.5547 37.8828 85.8203 38.1484C86.0859 38.3984 86.4766 38.5234 86.9766 38.5234V38.4375Z" fill="#2D3748"/>
  <path d="M100.922 23.7812L101.078 25.5312C102.078 23.7969 103.453 23.0312 105.203 23.0312C106.641 23.0312 107.719 23.4688 108.438 24.3438C109.172 25.2188 109.555 26.5156 109.586 28.2344V41.5H105.562V28.3438C105.562 27.6406 105.422 27.1328 105.141 26.8203C104.859 26.5078 104.375 26.3516 103.688 26.3516C102.75 26.3516 102.062 26.7812 101.625 27.6406V41.5H97.6016V23.7812H100.922Z" fill="#2D3748"/>
  <path d="M114.039 23.7812L114.172 25.3984C115.156 23.9922 116.5 23.2891 118.203 23.2891C119.859 23.2891 121.016 23.9609 121.672 25.3047C122.625 23.9609 124.016 23.2891 125.844 23.2891C127.344 23.2891 128.445 23.7188 129.148 24.5781C129.852 25.4219 130.203 26.7188 130.203 28.4688V41.5H126.172V28.4766C126.172 27.7734 126.039 27.2656 125.773 26.9531C125.508 26.625 125.047 26.4609 124.391 26.4609C123.5 26.4609 122.875 26.9375 122.516 27.8906L122.531 41.5H118.5V28.4297C118.5 27.7578 118.367 27.2656 118.102 26.9531C117.836 26.625 117.367 26.4609 116.695 26.4609C115.82 26.4609 115.195 26.8906 114.82 27.75V41.5H110.797V23.7812H114.039Z" fill="#2D3748"/>
  <path d="M138.672 41.8281C136.703 41.8281 135.078 41.1719 133.797 39.8594C132.531 38.5469 131.898 36.8125 131.898 34.6562V34.2891C131.898 32.8359 132.18 31.5469 132.742 30.4219C133.305 29.2812 134.102 28.3984 135.133 27.7734C136.164 27.1484 137.352 26.8359 138.695 26.8359C140.57 26.8359 142.031 27.4609 143.078 28.7109C144.141 29.9609 144.672 31.7188 144.672 33.9844V35.6797H135.984C136.109 36.5859 136.461 37.3047 137.039 37.8359C137.633 38.3672 138.375 38.6328 139.266 38.6328C140.688 38.6328 141.828 38.1172 142.688 37.0859L144.406 39.3984C143.859 40.1797 143.109 40.7969 142.156 41.25C141.219 41.6875 140.016 41.8281 138.672 41.8281ZM138.688 30.0312C137.969 30.0312 137.391 30.2734 136.953 30.7578C136.531 31.2422 136.266 31.9531 136.156 32.8906H141.055V32.5781C141.039 31.75 140.836 31.1094 140.445 30.6562C140.055 30.2031 139.469 29.9766 138.688 30.0312Z" fill="#2D3748"/>
  <path d="M149.547 37.3906H158.906V41.5H143.539V37.9531L152.438 27.3438H143.648V23.25H158.438V26.7031L149.547 37.3906Z" fill="#2D3748"/>
  <path d="M172.562 35.7969H174.547V39.6719H171.258C169.57 39.6719 168.227 39.2578 167.227 38.4297C166.227 37.6016 165.727 36.3281 165.727 34.6094V27.5469H163.883V23.7812H165.727V20.0156H169.75V23.7812H174.492V27.5469H169.75V34.6562C169.75 35.0469 169.852 35.3438 170.055 35.5469C170.258 35.75 170.57 35.8516 170.992 35.8516L172.562 35.7969Z" fill="#2D3748"/>
  <path d="M180.945 23.7812L181.102 25.5312C182.102 23.7969 183.477 23.0312 185.227 23.0312C186.664 23.0312 187.742 23.4688 188.461 24.3438C189.195 25.2188 189.578 26.5156 189.609 28.2344V41.5H185.586V28.3438C185.586 27.6406 185.445 27.1328 185.164 26.8203C184.883 26.5078 184.398 26.3516 183.711 26.3516C182.773 26.3516 182.086 26.7812 181.648 27.6406V41.5H177.625V23.7812H180.945Z" fill="#2D3748"/>
</svg>